<?xml version="1.0" encoding="UTF-8"?>
<svg id="Layer_1" xmlns="http://www.w3.org/2000/svg" version="1.1" viewBox="0 0 30 30">
  <!-- Generator: Adobe Illustrator 29.3.1, SVG Export Plug-In . SVG Version: 2.1.0 Build 151)  -->
  <defs>
    <style>
      .st0 {
        fill: #6a6a6a;
      }

      .st1 {
        fill: #e50717;
      }
    </style>
  </defs>
  <path class="st0" d="M23,10.9h2.2v-4.1s-.1-.2-.4-.6c-.3-.4-4-4-4-4,0,0-.4-.3-.8-.3H7.3s-1.9,0-2,1.7v7.3h2.2v-6.8h11.4v3.3s.1.9,1,.9h3.2v2.7Z"/>
  <path class="st0" d="M5.3,25.9h19.8v.5s-.2,1.5-1.7,1.7H6.9s-1.5-.4-1.6-1.7v-.5Z"/>
  <g>
    <path class="st1" d="M5.3,19.7h-2v3c0,.4-.1.8-.3,1-.2.2-.5.3-.8.3s-.6-.1-.8-.3-.3-.5-.3-1v-8.2c0-.5.1-.8.3-1,.2-.2.6-.3,1-.3h2.8c.8,0,1.5,0,1.9.2.4.1.8.3,1.1.6.3.3.6.6.7,1,.2.4.2.9.2,1.4,0,1.1-.3,1.9-1,2.5s-1.7.8-3,.8ZM4.8,14.8h-1.5v3.3h1.5c.5,0,.9,0,1.3-.2.3-.1.6-.3.8-.5.2-.2.3-.6.3-1s-.1-.9-.4-1.2c-.3-.3-.9-.5-1.9-.5Z"/>
    <path class="st1" d="M12.5,13.2h2.8c.7,0,1.4,0,1.9.2s1,.4,1.4.8c1.1,1,1.7,2.4,1.7,4.3s0,1.2-.2,1.8c-.1.5-.3,1-.5,1.4-.2.4-.5.8-.9,1.1-.3.3-.6.5-.9.6-.3.2-.7.3-1.1.3s-.8,0-1.3,0h-2.8c-.4,0-.7,0-.9-.2-.2-.1-.3-.3-.4-.5,0-.2,0-.5,0-.8v-7.8c0-.5.1-.8.3-1s.5-.3,1-.3ZM13.3,14.9v7.2h1.6c.4,0,.6,0,.8,0,.2,0,.4,0,.6-.1.2,0,.4-.2.6-.3.7-.6,1.1-1.7,1.1-3.2s-.2-1.8-.5-2.4c-.3-.5-.7-.9-1.2-1-.5-.1-1-.2-1.7-.2h-1.4Z"/>
    <path class="st1" d="M28.5,14.8h-4.3v2.7h3.6c.3,0,.6,0,.7.2.2.1.2.3.2.6s0,.4-.2.6c-.2.1-.4.2-.7.2h-3.6v3.5c0,.4-.1.8-.3,1-.2.2-.5.3-.8.3s-.6-.1-.8-.3-.3-.5-.3-1v-8.2c0-.3,0-.6.1-.8,0-.2.2-.3.4-.4s.4-.1.8-.1h5.1c.3,0,.6,0,.8.2.2.2.3.4.3.6s0,.5-.3.6c-.2.2-.4.2-.8.2Z"/>
  </g>
</svg>