<svg xmlns="http://www.w3.org/2000/svg" xmlns:xlink="http://www.w3.org/1999/xlink" fill="none" version="1.1" width="16" height="16" viewBox="0 0 16 16"><defs><clipPath id="master_svg0_125_00593"><rect x="0" y="0" width="16" height="16" rx="0"/></clipPath></defs><g clip-path="url(#master_svg0_125_00593)"><g><path d="M3.9259559765625,10.6666409765625L1.3332929765625,10.6666409765625C0.9651029765625,10.6666409765625,0.6666259765625,10.3681709765625,0.6666259765625,9.999980976562501L0.6666259765625,5.9999809765625C0.6666259765625,5.6317909765625,0.9651029765625,5.3333109765625,1.3332929765625,5.3333109765625L3.9259559765625,5.3333109765625L7.4552959765625,2.4453104765625C7.5549759765625,2.3635902365625,7.6928359765625,2.3466632765625,7.8093259765625,2.4018419765625C7.9258159765625,2.4570204765625,8.0000459765625,2.5744139765625,7.9999559765625,2.7033109765625L7.9999559765625,13.2966509765625C8.0000459765625,13.4255509765625,7.9258159765625,13.5429509765625,7.8093259765625,13.5981509765625C7.6928359765625,13.6532509765625,7.5549759765625,13.6363509765625,7.4552959765625,13.5546509765625L3.9259559765625,10.6666409765625L3.9259559765625,10.6666409765625ZM12.9373259765625,13.4226509765625L11.9933259765625,12.4786509765625C13.2716259765625,11.3412209765625,14.0020259765625,9.7110709765625,13.9999259765625,7.9999809765625C14.0016259765625,6.1990909765625,13.1927259765625,4.4930809765625,11.7973259765625,3.3546439765625L12.7439259765625,2.4079769765625C14.3881259765625,3.7999409765625,15.3354259765625,5.8457009765625,15.3333259765625,7.9999809765625C15.3333259765625,10.1486409765625,14.4093259765625,12.0813109765625,12.9373259765625,13.4226509765625ZM10.5752959765625,11.0606409765625L9.6272959765625,10.1126409765625C10.2832659765625,9.608240976562499,10.6673259765625,8.827460976562499,10.6666259765625,7.9999809765625C10.6666259765625,7.0466409765625,10.1666259765625,6.2099809765625,9.4132959765625,5.7386409765625L10.3726259765625,4.7793109765625C11.3967259765625,5.5326709765625,12.0010259765625,6.7286009765625,11.9999259765625,7.9999809765625C11.9999259765625,9.227980976562499,11.4466259765625,10.3266409765625,10.5752959765625,11.0606409765625Z" fill="#000000" fill-opacity="1" style="mix-blend-mode:passthrough"/></g></g></svg>